<mxfile host="app.diagrams.net" modified="2024-04-26T18:19:54.861Z" agent="Mozilla/5.0 (Macintosh; Intel Mac OS X 10_15_7) AppleWebKit/537.36 (KHTML, like Gecko) Chrome/124.0.0.0 Safari/537.36" etag="Np98ZNSQabR4vA70hRfZ" version="24.3.0" type="device">
  <diagram name="Page-1" id="WD0ZMha9WFlSbOlJTEhX">
    <mxGraphModel dx="1194" dy="565" grid="1" gridSize="10" guides="1" tooltips="1" connect="1" arrows="1" fold="1" page="1" pageScale="1" pageWidth="1169" pageHeight="827" math="0" shadow="0">
      <root>
        <mxCell id="0" />
        <mxCell id="1" parent="0" />
        <mxCell id="WLadhzUIKRz62O54xqJd-8" value="" style="line;strokeWidth=2;html=1;fillColor=none;fontSize=28;fontColor=#004D99;strokeColor=#004D99;" vertex="1" parent="1">
          <mxGeometry x="40" y="635" width="240" height="10" as="geometry" />
        </mxCell>
        <mxCell id="WLadhzUIKRz62O54xqJd-9" value="&lt;font color=&quot;#000000&quot; face=&quot;Serif&quot;&gt;Learning Stage 3&lt;/font&gt;" style="shape=offPageConnector;whiteSpace=wrap;html=1;fillColor=#0075E8;fontSize=15;fontColor=#FFFFFF;size=0.5093750000000015;verticalAlign=top;strokeColor=none;" vertex="1" parent="1">
          <mxGeometry x="80" y="440" width="160" height="40" as="geometry" />
        </mxCell>
        <mxCell id="WLadhzUIKRz62O54xqJd-10" value="" style="ellipse;whiteSpace=wrap;html=1;fillColor=#61BAFF;fontSize=28;fontColor=#004D99;strokeWidth=3;strokeColor=#004D99;" vertex="1" parent="1">
          <mxGeometry x="150" y="630" width="20" height="20" as="geometry" />
        </mxCell>
        <mxCell id="WLadhzUIKRz62O54xqJd-12" value="&lt;h2&gt;&lt;font face=&quot;Serif&quot;&gt;PyG Preprocessing&amp;nbsp;&lt;/font&gt;&lt;/h2&gt;&lt;div&gt;&lt;ul&gt;&lt;li style=&quot;text-align: left;&quot;&gt;&lt;font face=&quot;serif&quot;&gt;HeteroData&lt;/font&gt;&lt;/li&gt;&lt;li style=&quot;text-align: left;&quot;&gt;&lt;font face=&quot;serif&quot;&gt;Temporal Train-Test Split&lt;/font&gt;&lt;/li&gt;&lt;li style=&quot;text-align: left;&quot;&gt;&lt;font face=&quot;serif&quot;&gt;Link Neighborhood Loader&lt;/font&gt;&lt;/li&gt;&lt;li style=&quot;text-align: left;&quot;&gt;&lt;font face=&quot;serif&quot;&gt;Neighborhood Loader&lt;/font&gt;&lt;/li&gt;&lt;/ul&gt;&lt;/div&gt;" style="text;html=1;spacing=5;spacingTop=-20;whiteSpace=wrap;overflow=hidden;strokeColor=none;strokeWidth=3;fillColor=#E6E6E6;fontSize=13;fontColor=#000000;align=center;rounded=1;arcSize=18;" vertex="1" parent="1">
          <mxGeometry x="40" y="490" width="244" height="130" as="geometry" />
        </mxCell>
      </root>
    </mxGraphModel>
  </diagram>
</mxfile>
